<svg id="Capa_1" enable-background="new 0 0 510 510" height="512" viewBox="0 0 510 510" width="512" xmlns="http://www.w3.org/2000/svg"><g><path d="m409.859 161.352-328 344c-5.79 6.081-15.491 6.218-21.47.26l-56-56c-5.983-6.003-5.805-15.696.26-21.47l344-328c5.89-5.62 15.2-5.51 20.96.25l40 40c5.76 5.76 5.87 15.07.25 20.96z" fill="#ffdd54"/><path d="m409.859 161.352-328 344c-5.79 6.081-15.491 6.218-21.47.26l-28-28 357.22-357.22 20 20c5.76 5.76 5.87 15.07.25 20.96z" fill="#ffb454"/><path d="m509.419 195.122c-21.325 74.658-79.783 133.015-154.3 154.3-6.018 1.726-12.419-.485-16.12-5.42-87.477-116.643-66.696-88.936-105.6-140.8-6.2-8.27-16.07-13.2-26.4-13.2-4 0-7.84-1.6-10.66-4.45l-24-24.23c-5.81-5.87-5.78-15.32.05-21.16l135.77-135.77c5.84-5.83 15.29-5.86 21.16-.05l24.23 24c2.85 2.82 4.45 6.66 4.45 10.66v1.67c0 9.76 4.28 18.96 11.74 25.24 47.635 40.117 21.623 18.211 134.92 113.62 4.52 3.8 6.39 9.91 4.76 15.59z" fill="#0a789b"/><path d="m509.419 195.122c-21.325 74.658-79.783 133.015-154.3 154.3-6.018 1.726-12.419-.485-16.12-5.42l-74.14-98.86 145.24-145.24 94.56 79.63c4.52 3.8 6.39 9.91 4.76 15.59z" fill="#08475e"/><path d="m509.419 195.122c-21.308 74.579-79.651 132.972-154.3 154.3-6.018 1.726-12.419-.485-16.12-5.42l-38.48-51.3c135.99-43.1 154.31-155.13 154.31-155.13l49.83 41.96c4.52 3.8 6.39 9.91 4.76 15.59z" fill="#ff2929"/></g></svg>