<svg id="Capa_1" enable-background="new 0 0 512 512" height="512" viewBox="0 0 512 512" width="512" xmlns="http://www.w3.org/2000/svg"><g><path d="m256 75-15 15v38.824l15 6.176 15-6.176v-68.824z" fill="#cdf"/><path d="m271 60-15 15v60l15-6.176z" fill="#b3bfff"/><path d="m271 128.824h-15-15l-241 383.176h256 75l14.604-30 15.396 30h151z" fill="#697c86"/><path d="m345.604 482 15.396 30h151l-241-383.176h-15v383.176h75z" fill="#465a61"/><path d="m316 422h-60-60c-8.276 0-15-6.724-15-15s6.724-15 15-15h60 30c24.814 0 45-20.186 45-45 0-24.961-20.204-45-44.985-45-.249-.015-.571-.044-.732 0-8.046 0-14.282-7.04-14.282-15v-158.176l-15.001-23.824-15 23.824v158.176c0 13.11 5.836 25.12 15 33.481 7.905 7.209 18.256 11.739 29.824 11.519 9.296.229 15.176 7.278 15.176 15 0 8.276-6.724 15-15 15h-30-60c-24.814 0-45 20.186-45 45s20.186 45 45 45h60 60c8.276 0 15 6.724 15 15v45h30v-45c0-24.814-20.186-45-45-45z" fill="#ffea80"/><path d="m286 392c24.814 0 45-20.186 45-45 0-24.961-20.204-45-44.985-45-.249-.015-.571-.044-.732 0-8.046 0-14.282-7.04-14.282-15v-158.176l-15.001-23.824v215.481c7.905 7.209 18.256 11.739 29.824 11.519 9.296.229 15.176 7.278 15.176 15 0 8.276-6.724 15-15 15h-30v30z" fill="#fabe2c"/><path d="m331 467v45h30v-45c0-24.814-20.186-45-45-45h-60v30h60c8.276 0 15 6.724 15 15z" fill="#fabe2c"/><g><path d="m412.211 0h-156.211-15v90h15 156.211l-45-45z" fill="#f66"/><path d="m367.211 45 45-45h-156.211v90h156.211z" fill="#e63950"/></g></g></svg>