<svg id="Layer_1" enable-background="new 0 0 512 512" height="512" viewBox="0 0 512 512" width="512" xmlns="http://www.w3.org/2000/svg"><g><g fill="#45d987"><path d="m229.902 387.616c-4.143 0-7.5 3.357-7.5 7.5v57.436c0 4.143 3.357 7.5 7.5 7.5s7.5-3.357 7.5-7.5v-57.436c0-4.143-3.357-7.5-7.5-7.5z"/><path d="m169.2 387.616c-4.143 0-7.5 3.357-7.5 7.5v57.436c0 4.143 3.357 7.5 7.5 7.5s7.5-3.357 7.5-7.5v-57.436c0-4.143-3.357-7.5-7.5-7.5z"/><path d="m199.552 391.224c-4.143 0-7.5 3.357-7.5 7.5v90.16c0 4.143 3.357 7.5 7.5 7.5s7.5-3.357 7.5-7.5v-90.16c0-4.142-3.358-7.5-7.5-7.5z"/><path d="m396.947 184.176h57.436c4.143 0 7.5-3.357 7.5-7.5s-3.357-7.5-7.5-7.5h-57.436c-4.143 0-7.5 3.357-7.5 7.5s3.357 7.5 7.5 7.5z"/><path d="m454.382 229.878h-57.436c-4.143 0-7.5 3.357-7.5 7.5s3.357 7.5 7.5 7.5h57.436c4.143 0 7.5-3.357 7.5-7.5s-3.357-7.5-7.5-7.5z"/><path d="m491.208 199.526h-91.962c-4.143 0-7.5 3.357-7.5 7.5s3.357 7.5 7.5 7.5h91.962c4.143 0 7.5-3.357 7.5-7.5s-3.357-7.5-7.5-7.5z"/></g><path d="m466.483 510.19-103.44-103.44c-2.414-2.414-2.414-6.328 0-8.741l34.966-34.966c2.414-2.414 6.328-2.414 8.741 0l103.44 103.44c2.414 2.414 2.414 6.328 0 8.741l-34.966 34.966c-2.414 2.413-6.327 2.413-8.741 0z" fill="#f78e36"/><path d="m398.009 363.043-21.853 21.853c2.414-2.414 6.328-2.414 8.741 0l103.44 103.44c2.414 2.414 2.414 6.328 0 8.741l21.853-21.853c2.414-2.414 2.414-6.327 0-8.741l-103.44-103.44c-2.414-2.414-6.328-2.414-8.741 0z" fill="#f86f1b"/><path d="m341.257 323.029h30.905v67.362h-30.905z" fill="#4380a0" transform="matrix(.707 -.707 .707 .707 -147.754 356.71)"/><path d="m384.222 399.674h61.811v30.905h-61.811z" fill="#7be492" transform="matrix(.707 -.707 .707 .707 -171.951 415.127)"/><path d="m410.601 388.748h30.905v30.905h-30.905z" fill="#45d987" transform="matrix(.707 -.707 .707 .707 -161.025 419.653)"/><circle cx="200.885" cy="200.885" fill="#43809f" r="200.885"/><path d="m200.885 0c-5.199 0-10.353.198-15.453.586 103.726 7.891 185.433 94.553 185.433 200.3s-81.707 192.409-185.433 200.3c5.1.388 10.253.586 15.453.586 110.946 0 200.885-89.939 200.885-200.885s-89.939-200.887-200.885-200.887z" fill="#3a7190"/><circle cx="200.885" cy="200.885" fill="#f3f3f3" r="169.98"/><path d="m200.885 30.905c-5.21 0-10.361.249-15.453.71 86.512 7.834 154.527 80.752 154.527 169.27s-68.015 161.436-154.527 169.27c5.092.461 10.243.71 15.453.71 93.727 0 169.98-76.253 169.98-169.98s-76.252-169.98-169.98-169.98z" fill="#e4e4e4"/><g><path d="m172.555 204.491h-61.811v-90.656c0-2.276 1.845-4.121 4.121-4.121h53.569c2.276 0 4.121 1.845 4.121 4.121z" fill="#29cef6"/><path d="m141.65 109.714v94.777h30.905v-90.656c0-2.276-1.845-4.121-4.121-4.121z" fill="#22b5ed"/><path d="m296.177 204.491h-61.811v-51.509c0-2.276 1.845-4.121 4.121-4.121h53.569c2.276 0 4.121 1.845 4.121 4.121z" fill="#7be492"/><path d="m265.272 148.861v55.63h30.905v-51.509c0-2.276-1.845-4.121-4.121-4.121z" fill="#45d987"/><path d="m234.366 204.491h-61.811v-129.803c0-2.276 1.845-4.121 4.121-4.121h53.569c2.276 0 4.121 1.845 4.121 4.121z" fill="#f78e36"/><path d="m203.461 70.567v133.924h30.905v-129.803c0-2.276-1.845-4.121-4.121-4.121z" fill="#f86f1b"/></g><path d="m314.245 196.991h-221.568c-4.143 0-7.5 3.357-7.5 7.5s3.357 7.5 7.5 7.5h221.568c4.143 0 7.5-3.357 7.5-7.5s-3.357-7.5-7.5-7.5z" fill="#43809f"/><path d="m289.996 277.915h-36.529l-16.58-42.385c-1.133-2.897-3.958-4.793-7.051-4.768-3.112.028-5.884 1.975-6.966 4.893l-22.799 61.479-15.99-45.322c-.98-2.78-3.498-4.728-6.436-4.978-2.942-.259-5.748 1.242-7.186 3.816l-15.222 27.264h-36.411c-4.143 0-7.5 3.357-7.5 7.5s3.357 7.5 7.5 7.5h40.813c2.718 0 5.224-1.471 6.549-3.844l9.271-16.607 17.362 49.21c1.05 2.979 3.854 4.979 7.013 5.005h.061c3.133 0 5.94-1.95 7.031-4.893l23.162-62.458 11.273 28.819c1.125 2.875 3.896 4.768 6.984 4.768h41.648c4.143 0 7.5-3.357 7.5-7.5s-3.354-7.499-7.497-7.499z" fill="#29cef6"/></g></svg>