<svg height="512" viewBox="0 0 128 128" width="512" xmlns="http://www.w3.org/2000/svg"><g><path d="m6.306 47.492h115.387v15.858h-115.387z" fill="#ffca28"/><g fill="#ff6e6e"><path d="m55.229 47.492h17.543v15.858h-17.543z"/><path d="m79.922 63.35v31.158a6.5 6.5 0 0 0 6.5 6.5h21.628a6.5 6.5 0 0 0 6.5-6.5v-31.158z"/><path d="m13.454 63.35v31.158a6.5 6.5 0 0 0 6.5 6.5h21.628a6.5 6.5 0 0 0 6.5-6.5v-31.158z"/></g><path d="m20.673 52.435h6.856v10.915h-6.856z" fill="#65727f"/><path d="m31.11 27h14.513v8.735h-14.513v-3.7c-5.27-.683-9.813 3.7-9.813 3.7.003-9.098 9.813-8.735 9.813-8.735z" fill="#65727f"/><path d="m93.891 63.35v-19.972a8.834 8.834 0 0 0 0-16.383v6.786l-3.313 2.652-3.313-2.652v-6.781a8.834 8.834 0 0 0 0 16.383v19.967" fill="#eaeaea"/><path d="m103.993 43.325a3.312 3.312 0 0 0 -3.312 3.313v16.712h6.625v-16.712a3.313 3.313 0 0 0 -3.313-3.313z" fill="#65727f"/><path d="m34.11 35.732h6.625v27.618h-6.625z" fill="#9b6e42"/><path d="m41.785 77.073h-22.037a1.75 1.75 0 0 1 0-3.5h22.037a1.75 1.75 0 0 1 0 3.5z" fill="#d66161"/><path d="m108.252 77.073h-22.037a1.75 1.75 0 0 1 0-3.5h22.037a1.75 1.75 0 0 1 0 3.5z" fill="#d66161"/></g></svg>