<?xml version="1.0" encoding="iso-8859-1"?>
<!-- Generator: Adobe Illustrator 19.0.0, SVG Export Plug-In . SVG Version: 6.00 Build 0)  -->
<svg version="1.1" id="Capa_1" xmlns="http://www.w3.org/2000/svg" xmlns:xlink="http://www.w3.org/1999/xlink" x="0px" y="0px"
	 viewBox="0 0 512.004 512.004" style="enable-background:new 0 0 512.004 512.004;" xml:space="preserve">
<g>
	<polygon style="fill:#006EDB;" points="124.186,512.004 124.186,355.092 320.322,355.092 	"/>
	<circle style="fill:#006EDB;" cx="256.002" cy="221.94" r="221.936"/>
</g>
<g style="opacity:0.25;">
	<path style="fill:#FFFFFF;" d="M99.074,378.868c-86.672-86.664-86.672-227.192,0-313.864s227.192-86.672,313.864,0L99.074,378.868z
		"/>
</g>
<path style="fill:#FFFFFF;" d="M289.562,112.876c-23.96,8.744-39.128,31.28-37.392,55.96l0.576,9.52l-9.592-1.152
	c-34.904-4.472-65.4-19.608-91.288-45.08l-12.672-12.64l-3.256,9.32c-6.896,20.784-2.488,42.744,11.888,57.504
	c7.664,8.168,5.936,9.32-7.28,4.472c-4.6-1.544-8.632-2.72-9.016-2.136c-1.328,1.368,3.256,19.032,6.896,26.048
	c4.992,9.728,15.144,19.224,26.272,24.872l9.4,4.472l-11.112,0.192c-10.728,0-11.112,0.192-9.96,4.28
	c3.832,12.64,18.976,26.048,35.872,31.864l11.888,4.064l-10.344,6.224c-15.336,8.96-33.368,13.984-51.392,14.368
	c-8.648,0.192-15.736,0.96-15.736,1.56c0,1.928,23.408,12.808,37.008,17.088c40.84,12.64,89.384,7.184,125.808-14.368
	c25.888-15.352,51.784-45.848,63.856-75.4c6.528-15.72,13.04-44.48,13.04-58.272c0-8.936,0.576-10.112,11.304-20.784
	c6.336-6.224,12.272-13.024,13.424-14.952c1.928-3.696,1.712-3.696-8.056-0.384c-16.296,5.84-18.608,5.048-10.536-3.68
	c5.936-6.224,13.04-17.488,13.04-20.784c0-0.576-2.872,0.384-6.144,2.136c-3.448,1.944-11.112,4.856-16.872,6.608l-10.344,3.312
	l-9.4-6.416c-5.184-3.488-12.464-7.376-16.296-8.552C313.33,109.388,298.386,109.772,289.562,112.876z"/>
<g>
</g>
<g>
</g>
<g>
</g>
<g>
</g>
<g>
</g>
<g>
</g>
<g>
</g>
<g>
</g>
<g>
</g>
<g>
</g>
<g>
</g>
<g>
</g>
<g>
</g>
<g>
</g>
<g>
</g>
</svg>
