<svg enable-background="new 0 0 256 256" height="512" viewBox="0 0 256 256" width="512" xmlns="http://www.w3.org/2000/svg"><g id="Layer_30"><g><g><g><path d="m186.053 12.125h-100.367l-50.402 50.401v159.008c0 6.787 5.553 12.341 12.341 12.341h138.428c6.787 0 12.341-5.553 12.341-12.341v-197.068c-.001-6.788-5.554-12.341-12.341-12.341z" fill="#edf4fc"/></g></g><g><g><path d="m171.41 99.295-49.267-28.445c-3.282-1.895-7.326-1.895-10.608 0l-49.268 28.445c-3.282 1.895-5.304 5.397-5.304 9.187v56.889c0 3.79 2.022 7.292 5.304 9.187l49.267 28.445c3.282 1.895 7.326 1.895 10.608 0l49.267-28.445c3.282-1.895 5.304-5.397 5.304-9.187v-56.889c.001-3.79-2.021-7.292-5.303-9.187z" fill="#9a4993"/></g></g><g><g><path d="m139.727 144.072h-7.814c-1.151 0-2.184.709-2.598 1.783-2.504 6.498-8.13 10.67-16.447 10.67-10.645 0-16.831-8.521-16.831-19.517 0-11.146 6.192-19.68 16.831-19.68 8.303 0 13.937 4.16 16.448 10.671.413 1.074 1.446 1.782 2.597 1.782h7.814c1.852 0 3.192-1.779 2.673-3.562-3.707-12.73-13.799-21.296-29.451-21.296-18.259 0-30.132 13.759-30.132 32.086 0 18.23 11.961 31.922 30.132 31.922 15.589 0 25.727-8.504 29.451-21.296.518-1.78-.816-3.563-2.673-3.563z" fill="#edf4fc"/></g></g><g><g><path d="m35.284 62.526h38.061c6.787 0 12.341-5.553 12.341-12.341v-38.06z" fill="#b763b3"/></g></g><g><g><path d="m55.776 19.551c-4.149.773-7.419 3.976-8.208 8.041-.04.204-.325.204-.364 0-.789-4.065-4.059-7.268-8.208-8.041-.208-.039-.208-.318 0-.357 4.149-.773 7.419-3.976 8.208-8.041.04-.204.325-.204.364 0 .789 4.065 4.059 7.268 8.208 8.041.208.039.208.318 0 .357z" fill="#f5c84c"/></g></g><g><g><path d="m120.27 250.253c-2.91.542-5.204 2.789-5.757 5.64-.028.143-.228.143-.255 0-.553-2.851-2.847-5.098-5.757-5.64-.146-.027-.146-.223 0-.25 2.91-.542 5.204-2.789 5.757-5.64.028-.143.228-.143.255 0 .553 2.851 2.847 5.098 5.757 5.64.146.027.146.222 0 .25z" fill="#87d147"/></g></g><g><g><circle cx="74.839" cy="3.377" fill="#fc657e" r="3.377"/></g></g><g><g><circle cx="219.839" cy="154.377" fill="#f5c84c" r="3.377"/></g></g><g><g><path d="m219.312 179.758h-1.824v-1.824c0-1.366-1.107-2.473-2.473-2.473s-2.473 1.107-2.473 2.473v1.824h-1.824c-1.366 0-2.473 1.107-2.473 2.473s1.107 2.473 2.473 2.473h1.824v1.824c0 1.366 1.107 2.473 2.473 2.473s2.473-1.107 2.473-2.473v-1.824h1.824c1.366 0 2.473-1.107 2.473-2.473s-1.108-2.473-2.473-2.473z" fill="#70d6f9"/></g></g><g><g><circle cx="141.223" cy="245.627" fill="#70d6f9" r="3.377"/></g></g><g><g><path d="m186.053 236.375h-138.428c-8.184 0-14.841-6.658-14.841-14.841v-159.008c0-.663.264-1.299.732-1.768l50.401-50.401c.469-.469 1.104-.732 1.768-.732h100.367c8.184 0 14.841 6.658 14.841 14.841v197.068c.001 8.183-6.657 14.841-14.84 14.841zm-148.269-172.813v157.972c0 5.426 4.415 9.841 9.841 9.841h138.428c5.426 0 9.841-4.415 9.841-9.841v-197.068c0-5.426-4.415-9.841-9.841-9.841h-99.332z"/></g></g><g><g><path d="m73.345 65.026h-37.25c-1.381 0-2.5-1.119-2.5-2.5s1.119-2.5 2.5-2.5h37.25c5.426 0 9.841-4.415 9.841-9.841v-37.143c0-1.381 1.119-2.5 2.5-2.5s2.5 1.119 2.5 2.5v37.143c0 8.184-6.658 14.841-14.841 14.841z"/></g></g><g><g><path d="m167.142 132.15h-2.633l.902-4.24c.095-.46-.254-.889-.722-.889h-2.131c-.347 0-.65.246-.722.583l-.966 4.545h-3.722l.902-4.24c.095-.46-.254-.889-.722-.889h-2.128c-.347 0-.65.246-.722.583l-.966 4.545h-3.591c-.406 0-.737.331-.737.737v2.081c0 .407.331.737.737.737h2.828l-.549 2.54h-3.691c-.406 0-.737.331-.737.737v2.056c0 .407.331.737.737.737h2.952l-.896 4.162c-.099.46.252.892.721.892h2.13c.347 0 .65-.245.721-.582l.966-4.473h3.72l-.897 4.162c-.099.46.252.892.721.892h2.131c.346 0 .649-.245.72-.582l.966-4.473h3.294c.406 0 .737-.331.737-.737v-2.056c0-.407-.331-.737-.737-.737h-2.555l.549-2.54h3.394c.406 0 .737-.331.737-.737v-2.081c-.004-.402-.335-.733-.741-.733zm-7.034 3.556-.549 2.54h-3.72l.549-2.54z"/></g></g><g><g><path d="m116.839 206.917c-2.267 0-4.532-.583-6.554-1.75l-49.268-28.444c-4.043-2.334-6.554-6.684-6.554-11.352v-56.889c0-4.668 2.512-9.018 6.554-11.352l49.268-28.445c4.043-2.334 9.064-2.334 13.107 0l49.268 28.445c4.042 2.333 6.554 6.683 6.554 11.352v56.889c0 4.668-2.511 9.018-6.554 11.352l-49.268 28.444c-2.021 1.166-4.287 1.75-6.553 1.75zm0-134.984c-1.401 0-2.804.361-4.054 1.083l-49.267 28.444c-2.501 1.443-4.054 4.134-4.054 7.021v56.889c0 2.887 1.554 5.578 4.054 7.021l49.268 28.444c2.5 1.443 5.607 1.443 8.107 0l49.268-28.444c2.5-1.444 4.054-4.134 4.054-7.021v-56.889c0-2.888-1.553-5.578-4.054-7.021l-49.268-28.445c-1.25-.722-2.653-1.082-4.054-1.082z"/></g></g><g><g><path d="m112.949 171.43c-19.214 0-32.633-14.155-32.633-34.422 0-20.363 13.419-34.585 32.633-34.585 15.968 0 27.577 8.418 31.852 23.097.469 1.612.16 3.306-.848 4.649s-2.548 2.113-4.226 2.113h-7.814c-2.169 0-4.15-1.359-4.931-3.383-2.255-5.849-7.269-9.07-14.115-9.07-8.706 0-14.331 6.744-14.331 17.18 0 10.337 5.625 17.017 14.331 17.017 6.849 0 11.86-3.221 14.114-9.069.782-2.025 2.764-3.384 4.932-3.384h7.814c1.678 0 3.218.77 4.225 2.112 1.009 1.343 1.317 3.037.849 4.648-4.275 14.678-15.884 23.097-31.852 23.097zm0-64.008c-16.27 0-27.633 12.166-27.633 29.585 0 17.323 11.363 29.422 27.633 29.422 13.584 0 23.443-7.105 27.051-19.494.01-.033.04-.136-.047-.25-.085-.113-.19-.113-.226-.113h-7.814c-.117 0-.225.074-.267.184-3.005 7.796-9.85 12.269-18.779 12.269-11.382 0-19.331-9.054-19.331-22.017 0-13.267 7.769-22.18 19.331-22.18 8.928 0 15.773 4.473 18.781 12.272.042.109.148.182.265.182h7.814c.035 0 .141 0 .227-.114.085-.114.056-.216.046-.25-3.607-12.39-13.468-19.496-27.051-19.496z"/></g></g></g></g></svg>