<svg id="Capa_1" enable-background="new 0 0 512 512" height="512" viewBox="0 0 512 512" width="512" xmlns="http://www.w3.org/2000/svg"><g><g><path d="m380.167 19.601c-55.899 0-103.542 41.679-122.71 100.413-.462 1.415-2.451 1.415-2.913 0-19.168-58.733-66.812-100.413-122.71-100.413-72.808 0-131.327 70.585-131.831 157.653-.115 19.881 3.799 39.807 10.736 59.455l10.981 12.908 2.09 17.351c51.513 101.323 172.19 190.37 215.965 220.409 9.763 6.7 22.64 6.702 32.382-.028 49.355-34.095 196.932-144.006 232.208-261.649l1.514-16.01 4.903-13.99c.766-6.146 1.181-12.298 1.216-18.445.503-87.068-59.024-157.654-131.831-157.654z" fill="#ff6378"/><path d="m380.167 19.601c-55.899 0-103.542 41.679-122.71 100.413-.231.707-.844 1.061-1.457 1.061v371.323c5.648-.009 11.293-1.689 16.156-5.049 49.355-34.095 196.932-144.006 232.208-261.649l1.514-16.01 4.903-13.99c.766-6.146 1.181-12.298 1.217-18.446.503-87.067-59.024-157.653-131.831-157.653z" fill="#c30047"/></g><g><path d="m510.778 195.699h-110.087c-1.77-23.014-21.062-41.199-44.521-41.199-24.622 0-44.654 20.032-44.654 44.654v61.545c0 8.08-6.573 14.654-14.653 14.654s-14.654-6.574-14.654-14.654v-41.508c0-24.622-20.031-44.653-44.653-44.653s-44.654 20.031-44.654 44.653v88.546c0 8.08-6.574 14.654-14.654 14.654s-14.653-6.574-14.653-14.654v-55.773c0-8.284-6.716-15-15-15h-137.764c3.576 10.088 7.951 20.102 12.983 30h109.781v40.773c0 24.622 20.031 44.654 44.653 44.654s44.654-20.032 44.654-44.654v-88.546c0-8.08 6.574-14.653 14.654-14.653s14.653 6.573 14.653 14.653v41.508c0 24.622 20.032 44.654 44.654 44.654s44.653-20.032 44.653-44.654v-61.545c0-8.08 6.574-14.654 14.654-14.654s14.653 6.574 14.653 14.654v11.545c0 8.284 6.716 15 15 15h118.54c2.986-9.958 5.166-19.972 6.415-30z" fill="#fbf4f4"/><path d="m400.691 195.699c-1.77-23.014-21.062-41.199-44.521-41.199-24.622 0-44.654 20.032-44.654 44.654v61.545c0 8.08-6.573 14.654-14.653 14.654s-14.654-6.574-14.654-14.654v-41.508c0-18.047-10.767-33.615-26.21-40.65v100.132c6.93 15.694 22.634 26.68 40.863 26.68 24.622 0 44.653-20.032 44.653-44.654v-61.545c0-8.08 6.574-14.654 14.654-14.654s14.653 6.574 14.653 14.654v11.545c0 8.284 6.716 15 15 15h118.54c2.986-9.959 5.166-19.972 6.415-30z" fill="#e2dff4"/></g></g></svg>