<?xml version="1.0" encoding="iso-8859-1"?>
<!-- Generator: Adobe Illustrator 19.0.0, SVG Export Plug-In . SVG Version: 6.00 Build 0)  -->
<svg version="1.1" id="Capa_1" xmlns="http://www.w3.org/2000/svg" xmlns:xlink="http://www.w3.org/1999/xlink" x="0px" y="0px"
	 viewBox="0 0 512 512" style="enable-background:new 0 0 512 512;" xml:space="preserve">
<g transform="translate(1 1)">
	<polygon style="fill:#FFE100;" points="7.501,502.498 502.498,502.498 502.498,7.501 7.501,7.501 	"/>
	<polygon style="fill:#FFA800;" points="476.895,502.498 502.498,502.498 502.498,7.501 476.895,7.501 	"/>
	<polygon style="fill:#FFFFFF;" points="7.501,502.498 33.104,502.498 33.104,7.501 7.501,7.501 	"/>
	<path d="M502.499,511H7.501C2.806,511-1,507.194-1,502.499V7.501C-1,2.806,2.806-1,7.501-1h494.998C507.194-1,511,2.806,511,7.501
		v494.998C511,507.194,507.194,511,502.499,511z M16.002,493.998h477.996V16.002H16.002V493.998z"/>
	<path d="M391.551,468.328c-42.334,0-76.777-34.442-76.777-76.777c0-4.695,3.807-8.501,8.501-8.501c4.695,0,8.501,3.806,8.501,8.501
		c0,32.959,26.815,59.775,59.775,59.775s59.775-26.815,59.775-59.775s-26.815-59.775-59.775-59.775
		c-42.334,0-76.777-34.442-76.777-76.777s34.442-76.776,76.777-76.776s76.777,34.442,76.777,76.777c0,4.695-3.806,8.501-8.501,8.501
		c-4.695,0-8.501-3.806-8.501-8.501c0-32.96-26.815-59.775-59.775-59.775S331.776,222.04,331.776,255
		c0,32.959,26.815,59.775,59.775,59.775c42.334,0,76.777,34.442,76.777,76.777S433.885,468.328,391.551,468.328z"/>
	<path d="M212.328,468.328c-42.334,0-76.777-34.442-76.777-76.777c0-4.695,3.806-8.501,8.501-8.501s8.501,3.806,8.501,8.501
		c0,32.959,26.814,59.775,59.775,59.775s59.775-26.815,59.775-59.775V186.724c0-4.695,3.806-8.501,8.501-8.501
		s8.501,3.806,8.501,8.501v204.826C289.103,433.885,254.662,468.328,212.328,468.328z"/>
</g>
<g>
</g>
<g>
</g>
<g>
</g>
<g>
</g>
<g>
</g>
<g>
</g>
<g>
</g>
<g>
</g>
<g>
</g>
<g>
</g>
<g>
</g>
<g>
</g>
<g>
</g>
<g>
</g>
<g>
</g>
</svg>
