<svg id="color" enable-background="new 0 0 24 24" height="512" viewBox="0 0 24 24" width="512" xmlns="http://www.w3.org/2000/svg"><path d="m15.25 21h-11.5c-1.517 0-2.75-1.233-2.75-2.75v-15.5c0-1.517 1.233-2.75 2.75-2.75h11.5c1.517 0 2.75 1.233 2.75 2.75v15.5c0 1.517-1.233 2.75-2.75 2.75z" fill="#1976d2"/><path d="m10 0h-6.25c-1.517 0-2.75 1.233-2.75 2.75v15.5c0 1.517 1.233 2.75 2.75 2.75h6.25z" fill="#1667b7"/><path d="m20.25 24h-11.5c-1.517 0-2.75-1.233-2.75-2.75v-14.5c0-1.517 1.233-2.75 2.75-2.75h11.5c1.517 0 2.75 1.233 2.75 2.75v14.5c0 1.517-1.233 2.75-2.75 2.75z" fill="#eceff1"/><g fill="#607d8b"><path d="m18.25 17h-7.5c-.414 0-.75-.336-.75-.75s.336-.75.75-.75h7.5c.414 0 .75.336.75.75s-.336.75-.75.75z"/><path d="m18.25 21h-7.5c-.414 0-.75-.336-.75-.75s.336-.75.75-.75h7.5c.414 0 .75.336.75.75s-.336.75-.75.75z"/><path d="m18.25 13.5h-7.5c-.414 0-.75-.336-.75-.75s.336-.75.75-.75h7.5c.414 0 .75.336.75.75s-.336.75-.75.75z"/><path d="m18.25 9.5h-7.5c-.414 0-.75-.336-.75-.75s.336-.75.75-.75h7.5c.414 0 .75.336.75.75s-.336.75-.75.75z"/></g><path d="m14.5 4h-5.75c-1.517 0-2.75 1.233-2.75 2.75v14.5c0 1.517 1.233 2.75 2.75 2.75h5.75v-3h-3.75c-.414 0-.75-.336-.75-.75s.336-.75.75-.75h3.75v-2.5h-3.75c-.414 0-.75-.336-.75-.75s.336-.75.75-.75h3.75v-2h-3.75c-.414 0-.75-.336-.75-.75s.336-.75.75-.75h3.75v-2.5h-3.75c-.414 0-.75-.336-.75-.75s.336-.75.75-.75h3.75z" fill="#cdd0d2"/><path d="m14.5 15.5h-3.75c-.414 0-.75.336-.75.75s.336.75.75.75h3.75z" fill="#546d79"/><path d="m14.5 19.5h-3.75c-.414 0-.75.336-.75.75s.336.75.75.75h3.75z" fill="#546d79"/><path d="m14.5 12h-3.75c-.414 0-.75.336-.75.75s.336.75.75.75h3.75z" fill="#546d79"/><path d="m14.5 8h-3.75c-.414 0-.75.336-.75.75s.336.75.75.75h3.75z" fill="#546d79"/></svg>